<?xml version="1.0" encoding="utf-8"?>
<!-- Generator: Adobe Illustrator 24.2.0, SVG Export Plug-In . SVG Version: 6.00 Build 0)  -->
<svg version="1.1" id="Layer_1" xmlns="http://www.w3.org/2000/svg" xmlns:xlink="http://www.w3.org/1999/xlink" x="0px" y="0px"
	 viewBox="0 0 21.9 17.8" style="enable-background:new 0 0 21.9 17.8;" xml:space="preserve">
<style type="text/css">
	.st0{fill:#7A5A4C;}
</style>
<g>
	<path class="st0" d="M21.9,2.1c-0.6,0.9-1.4,1.7-2.2,2.3V5c0,1.2-0.2,2.4-0.5,3.6c-0.4,1.2-0.9,2.4-1.6,3.5
		C16.9,13.2,16,14.2,15,15c-1,0.8-2.2,1.5-3.6,2c-1.4,0.5-2.9,0.8-4.5,0.8c-2.7,0-5-0.6-6.9-1.8c0.4,0.1,0.7,0.1,1.1,0.1
		c1.9,0,3.8-0.7,5.6-2.1c-1,0-1.8-0.3-2.6-0.9c-0.8-0.6-1.3-1.3-1.6-2.2c0.3,0.1,0.6,0.1,0.8,0.1c0.4,0,0.8-0.1,1.2-0.2
		c-1-0.2-1.9-0.7-2.6-1.5s-1-1.8-1-2.9V6.3c0.6,0.4,1.3,0.5,2,0.6c-1.3-0.9-2-2.1-2-3.7c0-0.7,0.2-1.5,0.6-2.2
		C2.7,2.3,4,3.4,5.6,4.2C7.2,5,8.9,5.4,10.8,5.5c-0.1-0.3-0.1-0.6-0.1-1c0-1.2,0.4-2.3,1.3-3.2C12.9,0.4,13.9,0,15.2,0
		c1.3,0,2.4,0.5,3.3,1.4c1-0.2,1.9-0.6,2.8-1.1c-0.3,1.1-1,1.9-2,2.5C20.2,2.7,21.1,2.5,21.9,2.1z"/>
</g>
</svg>
